<svg id="Layer_1" data-name="Layer 1" xmlns="http://www.w3.org/2000/svg" viewBox="0 0 47.95 47.95"><title>blender</title><path d="M43.26,45.23a7.58,7.58,0,0,1,2.06-4.94,6,6,0,0,1,8.83,0,7.58,7.58,0,0,1,2.06,4.93,7.72,7.72,0,0,1-1.73,5.3,6,6,0,0,1-9.49,0,7.72,7.72,0,0,1-1.73-5.29M33,49.2a17.45,17.45,0,0,0,.51,3.44,19.44,19.44,0,0,0,3.18,6.78,17.1,17.1,0,0,0,5.57,4.93,15.12,15.12,0,0,0,14.62,0,17.18,17.18,0,0,0,5.57-4.95,19.75,19.75,0,0,0,3.18-6.79,21.11,21.11,0,0,0,.5-7.56,20.41,20.41,0,0,0-2-6.84,18.47,18.47,0,0,0-3.7-5h0L45.37,19l0,0a2.83,2.83,0,0,0-3.72,0,2.36,2.36,0,0,0-.24,3.48h0l6.25,6.25-19,0h0a3.59,3.59,0,0,0-3.38,2.88,2.41,2.41,0,0,0,2.39,3h0l9.65,0L20,50.87l-.07.06c-1.62,1.53-2.14,4.08-1.12,5.69s3.25,1.64,4.89,0l9.4-9.47s-.14,1.28-.13,2ZM57.1,53.49a9.47,9.47,0,0,1-15.16,0,11.58,11.58,0,0,1-2.07-4,12.55,12.55,0,0,1-.48-4.41,12.4,12.4,0,0,1,1-4.25,11.24,11.24,0,0,1,2.3-3.37,9.39,9.39,0,0,1,13.58,0,11.2,11.2,0,0,1,2.3,3.37,12.62,12.62,0,0,1,.56,8.65,11.69,11.69,0,0,1-2.06,4" transform="translate(-18.26 -18.26)"/></svg>